# xmcd
#
# Track frame offsets:
#	183
#	16155
#	28373
#	43283
#	54753
#	68390
#	80903
#	93670
#	104890
#	116335
#	131758
#	145150
#	161058
#	174815
#	188678
#	196650
#	214538
#	228558
#	240840
#	254298
#	267638
#	279983
#	291078
#	307398
#	322610
#
# Disc length: 4444
#
# Revision: 1
# Processed by: cddbd v1.5.1PL0 Copyright (c) Steve Scherf et al.
# Submitted via: audiograbber 1.80.04
# Normalized: r0:TDELIM( - )
#
DISCID=64115a19
DTITLE=Various Artist - Play me The Blues - The Legendary Blues Singers 3
DYEAR=1900
DGENRE=
TTITLE0=John Mayall - Baby What You want me to do
TTITLE1=Eric Clapton - Freight Loader
TTITLE2=Jimi Hendrix - Bleeding Heart
TTITLE3=Jeff Beck - Got to Hurry
TTITLE4=Elmore James - Hand in Hand
TTITLE5=Howlin´ Wolf - Back Door Man
TTITLE6=Johnny Guitar Watson - She Moves Me
TTITLE7=Sonny Boy Williamson - Yor Funeral - My Trial
TTITLE8=B.B. King - Every Day I Have The Blues
TTITLE9=Muddy Waters - I Can´t Be Satisfied
TTITLE10=John Lee Hooker - Ground Hog Blues
TTITLE11=Howlin´ Wolf - Blue Bird
TTITLE12=Little Walter - Take me Back
TTITLE13=Muddy Waters - You Can´t Loose What You Ain´t Never Had
TTITLE14=Big Joe Williams - Baby Please Don´t Go
TTITLE15=Elmore James - Something Inside Of Me
TTITLE16=B.B. KIng - Whole Lotta Love
TTITLE17=Little Walter - Juke
TTITLE18=John Lee Hoker - My First Wife Left Me
TTITLE19=Muddy Waters - Rollin´ And Tumblin´
TTITLE20=Howlin´ Wolf - Little Baby
TTITLE21=John Lee Hooker - Boom Boom
TTITLE22=B.B. King - Outside Help
TTITLE23=Sonny Boy Williamson - Cross my Heart
TTITLE24=Elmore James - Coming Home
EXTD=
EXTT0=
EXTT1=
EXTT2=
EXTT3=
EXTT4=
EXTT5=
EXTT6=
EXTT7=
EXTT8=
EXTT9=
EXTT10=
EXTT11=
EXTT12=
EXTT13=
EXTT14=
EXTT15=
EXTT16=
EXTT17=
EXTT18=
EXTT19=
EXTT20=
EXTT21=
EXTT22=
EXTT23=
EXTT24=
PLAYORDER=
